<?xml version="1.0" encoding="UTF-8" standalone="no"?>
<!DOCTYPE svg PUBLIC "-//W3C//DTD SVG 1.1//EN" "http://www.w3.org/Graphics/SVG/1.1/DTD/svg11.dtd">
<svg width="100%" height="100%" viewBox="0 0 8192 8192" version="1.1" xmlns="http://www.w3.org/2000/svg" xmlns:xlink="http://www.w3.org/1999/xlink" xml:space="preserve" xmlns:serif="http://www.serif.com/" style="fill-rule:evenodd;clip-rule:evenodd;stroke-linejoin:round;stroke-miterlimit:2;">
    <path id="Divider-Left" serif:id="Divider Left" d="M5816.18,4812.7L2375.82,4812.7C2375.82,4812.7 954.212,7128.26 891.027,7255.7C827.843,7383.14 816.901,7433.13 808.539,7505.29C797.294,7602.33 812.75,7642.67 817.592,7682.56C841.276,7877.64 904.782,7983.62 1038.07,8176.11C1044.18,8184.93 1050.97,8191.94 1050.97,8191.94C1050.97,8191.94 483.638,8212.53 170.763,7486.96C-34.354,7011.28 131.044,6587.53 326.686,6205.35C901.428,5082.62 2901.93,1122.26 3211.77,552.232C3504.72,13.268 4038.67,-0.139 4096,0.001C4153.33,-0.139 4687.28,13.268 4980.23,552.232C5290.07,1122.26 7290.57,5082.62 7865.31,6205.35C8060.96,6587.53 8226.35,7011.28 8021.24,7486.96C7708.36,8212.53 7141.03,8191.94 7141.03,8191.94C7141.03,8191.94 7147.82,8184.93 7153.93,8176.11C7287.22,7983.62 7350.72,7877.64 7374.41,7682.56C7379.25,7642.67 7394.71,7602.33 7383.46,7505.29C7375.1,7433.13 7364.16,7383.14 7300.97,7255.7C7237.79,7128.26 5816.18,4812.7 5816.18,4812.7ZM4101.03,4135.68C4162.65,4135.79 4746.1,4136.79 5185.07,4135.67C5352.81,4135.24 5323.93,4038.84 5272.62,3991.47C5235.22,3956.94 5221.68,3942.67 5215.94,3913.28C5173.55,3696.29 5178.14,3631.26 5163.38,3437.01C5148.62,3242.76 5167.77,2664.41 5173.69,2585.01C5177.13,2538.8 5177.53,2481.46 5185.07,2442.53C5191.72,2408.18 5206.57,2403.25 5225.22,2402.22C5432.51,2390.76 5441.58,2275.16 5450.91,2129.67C5456.62,2040.63 5451.59,1959.84 5450.91,1926.97C5447.48,1760.83 4891.02,1749.52 4528.08,1749.26C4247.09,1749.06 4119.18,1749.22 4098.68,1749.25C4046.43,1749.22 3737.22,1749.06 3455.98,1749.26C3093.04,1749.52 2754.58,1760.83 2751.15,1926.97C2750.47,1959.84 2745.44,2040.63 2751.15,2129.67C2760.48,2275.16 2769.55,2390.76 2976.85,2402.22C2995.49,2403.25 3010.34,2408.18 3016.99,2442.53C3024.53,2481.46 3024.93,2538.8 3028.37,2585.01C3034.29,2664.41 3053.44,3242.76 3038.68,3437.01C3023.92,3631.26 3028.51,3696.29 2986.12,3913.28C2980.38,3942.67 2966.84,3956.94 2929.44,3991.47C2878.13,4038.84 2849.25,4135.24 3016.99,4135.67C3455.96,4136.79 4039.41,4135.79 4101.03,4135.68ZM3560.56,1217.37C3658.27,1217.37 3737.61,1297.71 3737.61,1396.67C3737.61,1495.63 3658.27,1575.98 3560.56,1575.98C3462.84,1575.98 3383.51,1495.63 3383.51,1396.67C3383.51,1297.71 3462.84,1217.37 3560.56,1217.37ZM4323.96,341.179C4547.74,341.179 4729.43,525.175 4729.43,751.806C4729.43,978.438 4547.74,1162.43 4323.96,1162.43C4100.18,1162.43 3918.5,978.438 3918.5,751.806C3918.5,525.175 4100.18,341.179 4323.96,341.179Z" style="fill:white;"/>
</svg>
